<svg xmlns="http://www.w3.org/2000/svg"  viewBox="0 0 64 64" width="64px" height="64px"><path d="M 16 8 C 11.582 8 8 11.582 8 16 L 8 48 C 8 52.418 11.582 56 16 56 L 48 56 C 52.418 56 56 52.418 56 48 L 56 16 C 56 11.582 52.418 8 48 8 L 16 8 z M 32 16 C 36.411 16 40 19.589 40 24 C 40 28.411 36.411 32 32 32 C 27.589 32 24 28.411 24 24 C 24 19.589 27.589 16 32 16 z M 32 20 A 4 4 0 0 0 32 28 A 4 4 0 0 0 32 20 z M 24.986328 33 C 25.370545 32.99676 25.759641 33.104031 26.103516 33.332031 C 26.170516 33.375031 28.723 35 32 35 C 35.305 35 37.873438 33.347078 37.898438 33.330078 C 38.818438 32.728078 40.057063 32.980391 40.664062 33.900391 C 41.270063 34.819391 41.025375 36.053062 40.109375 36.664062 C 39.995375 36.740063 37.790844 38.183719 34.589844 38.761719 L 40.414062 44.585938 C 41.195062 45.366937 41.195062 46.633062 40.414062 47.414062 C 40.023063 47.805062 39.512 48 39 48 C 38.488 48 37.976938 47.805062 37.585938 47.414062 L 32 41.828125 L 26.414062 47.414062 C 25.633063 48.195062 24.366938 48.195063 23.585938 47.414062 C 22.804938 46.633063 22.804937 45.366938 23.585938 44.585938 L 29.410156 38.761719 C 26.208156 38.183719 24.004625 36.741062 23.890625 36.664062 C 22.971625 36.052062 22.723937 34.809625 23.335938 33.890625 C 23.718438 33.3175 24.345967 33.0054 24.986328 33 z"/></svg>